<?xml version="1.0" standalone="no"?>
<!DOCTYPE svg PUBLIC "-//W3C//DTD SVG 20010904//EN"
 "http://www.w3.org/TR/2001/REC-SVG-20010904/DTD/svg10.dtd">
<svg version="1.0" xmlns="http://www.w3.org/2000/svg"
 width="1280.000000pt" height="584.000000pt" viewBox="0 0 1280.000000 584.000000"
 preserveAspectRatio="xMidYMid meet">

<g transform="translate(0.000000,584.000000) scale(0.100000,-0.100000)"
fill="#000000" stroke="none">
<path d="M10659 5821 c-316 -124 -690 -800 -833 -1508 -49 -241 -60 -352 -60
-623 0 -141 5 -281 11 -314 l10 -59 -181 -182 c-255 -255 -469 -428 -511 -411
-32 12 -10 127 45 236 21 42 21 44 4 57 -34 24 -62 13 -180 -73 -144 -106
-284 -195 -295 -188 -5 3 -5 13 0 22 5 9 46 80 90 156 86 150 89 166 27 166
-24 -1 -58 -22 -146 -91 -145 -113 -264 -192 -347 -231 -60 -28 -66 -29 -81
-14 -14 14 -15 23 -5 71 7 31 21 68 31 83 11 15 25 45 32 66 11 35 11 41 -6
53 -39 29 -91 -3 -130 -79 -26 -51 -88 -100 -202 -157 -69 -35 -75 -34 -105
18 l-18 31 58 58 c32 32 80 76 108 99 43 35 48 43 36 57 -27 33 -75 20 -189
-53 -179 -114 -415 -231 -467 -231 -27 0 -16 35 70 209 47 95 85 181 85 192 0
26 -40 34 -84 15 -20 -8 -95 -72 -169 -144 -205 -198 -346 -312 -390 -312 -54
0 -59 52 -11 109 21 26 24 34 14 46 -7 8 -27 15 -45 15 -66 0 -139 -119 -133
-215 2 -39 8 -52 30 -68 25 -19 32 -19 83 -8 106 24 249 117 386 252 l67 66
-34 -66 c-50 -98 -44 -150 21 -177 76 -32 216 -3 354 72 35 19 65 33 67 31 2
-2 -2 -17 -8 -35 -18 -48 -2 -84 47 -100 69 -23 179 9 368 106 4 2 7 -9 7 -25
0 -33 32 -68 70 -78 69 -17 245 49 378 141 34 24 62 40 62 35 0 -5 -7 -28 -15
-51 -33 -94 -14 -130 68 -130 63 0 159 43 255 114 34 25 64 46 67 46 3 0 5 -8
5 -17 0 -40 24 -98 50 -125 41 -40 106 -39 187 3 109 56 275 189 441 354 90
89 165 157 167 151 113 -405 352 -727 775 -1045 201 -150 340 -238 810 -513
364 -213 565 -336 529 -325 -9 3 -99 24 -200 46 -940 206 -1994 324 -3314 370
-1369 49 -2747 -15 -4130 -189 -1257 -159 -1971 -313 -2482 -536 l-102 -44
-173 -1 c-289 -1 -1482 -36 -1500 -43 -27 -12 -34 -47 -12 -64 16 -12 131 -13
766 -10 l746 4 -62 -67 c-101 -110 -138 -206 -116 -301 11 -45 24 -63 79 -118
72 -71 149 -114 287 -161 102 -35 183 -51 404 -84 410 -59 742 -75 1570 -75
1042 0 1948 20 3220 70 1334 53 1391 55 2075 90 877 45 1279 54 1694 41 299
-10 337 -10 358 4 29 19 39 43 26 56 -17 17 -504 27 -892 18 -201 -4 -573 -17
-826 -28 -636 -29 -2309 -94 -3070 -121 -1869 -65 -3135 -63 -3900 5 -200 18
-467 58 -580 85 -213 53 -327 161 -328 310 0 90 44 169 134 240 l47 37 2243 8
c1234 4 2705 10 3269 14 564 3 1124 3 1245 -1 1522 -47 2898 -161 3538 -292
262 -54 381 -64 486 -42 205 44 266 164 165 331 -19 32 -34 59 -34 60 0 1 27
5 60 8 70 6 124 33 128 66 12 78 -153 163 -428 221 -98 21 -110 26 -190 84
-270 197 -564 379 -1035 641 -278 154 -360 206 -490 309 -335 267 -569 610
-668 982 l-24 90 160 185 c410 472 642 799 823 1160 123 243 174 437 174 653
0 130 -18 225 -58 310 -84 179 -214 251 -353 197z m124 -90 c85 -55 141 -234
154 -486 10 -201 -26 -348 -141 -580 -125 -253 -444 -698 -785 -1094 -114
-133 -115 -134 -123 -105 -16 53 -21 364 -9 494 59 635 298 1258 631 1647 109
128 203 171 273 124z m-2448 -4091 c1385 -44 2467 -169 3470 -400 366 -85 364
-84 507 -208 l47 -40 -252 -6 c-494 -13 -1288 -25 -2382 -37 -867 -10 -1198
-10 -1510 0 -909 27 -1077 31 -1910 42 -1083 14 -2781 4 -4155 -26 -310 -7
-309 -8 -48 79 329 110 709 188 1573 325 898 142 1927 236 2950 270 346 12
1358 12 1710 1z m4168 -594 c51 -19 99 -36 107 -39 8 -3 -8 -6 -37 -6 -28 -1
-57 -3 -65 -6 -7 -3 -36 15 -63 40 -28 25 -46 45 -42 45 4 0 49 -15 100 -34z
m-36 -184 c67 -98 80 -171 41 -217 -47 -54 -130 -53 -478 5 -469 79 -1064 145
-1850 204 l-175 14 355 1 c445 1 1536 20 1775 30 99 4 207 9 240 9 l60 2 32
-48z"/>
<path d="M5707 4959 c-194 -46 -638 -451 -960 -877 -125 -165 -200 -274 -257
-367 -44 -73 -90 -127 -151 -176 -36 -28 -38 -28 -73 -14 -135 57 -275 -69
-319 -284 l-13 -65 -157 -133 c-86 -73 -157 -131 -157 -128 0 2 29 42 64 87
184 240 337 491 387 637 37 108 16 204 -54 247 -25 15 -50 19 -112 18 -100 -1
-216 -38 -400 -129 -309 -151 -730 -488 -810 -648 -29 -58 -33 -122 -9 -155
28 -40 92 -66 162 -66 53 0 74 7 145 42 87 44 284 186 428 308 107 91 299 273
299 284 0 16 -40 21 -73 11 -18 -6 -57 -36 -87 -67 -152 -155 -444 -392 -559
-453 -111 -59 -211 -36 -211 50 0 86 74 184 245 323 174 142 269 203 463 300
182 91 262 118 349 120 66 1 75 -1 100 -27 24 -24 28 -34 26 -85 -2 -104 -78
-289 -188 -457 -74 -114 -186 -255 -365 -460 -85 -97 -159 -183 -163 -191 -6
-11 1 -14 36 -14 33 0 54 7 83 29 46 33 311 260 439 375 133 120 122 115 135
64 17 -61 44 -111 80 -144 16 -16 30 -33 30 -38 0 -5 -34 -78 -76 -164 -42
-85 -79 -172 -81 -193 -6 -39 -5 -39 28 -39 19 0 44 7 57 15 20 15 124 183
188 304 l29 55 70 12 c75 12 196 57 284 105 30 16 55 28 57 26 1 -1 -20 -49
-46 -107 -90 -196 -119 -319 -85 -353 9 -9 26 -17 38 -17 42 0 142 58 221 126
43 38 96 84 118 103 l40 34 -22 -43 c-12 -23 -24 -66 -27 -94 -9 -89 33 -106
132 -55 56 29 148 100 388 297 115 95 213 172 218 172 31 0 -42 -141 -156
-301 -103 -143 -106 -161 -28 -140 30 8 66 40 164 143 l127 133 -5 -82 c-6
-81 -5 -82 25 -112 28 -29 36 -31 101 -31 47 0 96 8 148 25 112 35 123 34 123
-14 0 -59 25 -83 91 -89 147 -12 382 104 460 226 50 80 32 138 -57 179 -92 42
-116 41 -219 -10 -106 -52 -181 -109 -226 -171 -24 -34 -39 -46 -58 -46 -14 0
-61 -11 -104 -25 -94 -30 -131 -31 -157 -5 -26 26 -26 88 0 171 17 55 17 64 4
74 -13 9 0 25 78 96 435 398 674 548 943 589 71 11 95 23 95 45 0 22 -27 24
-122 9 -301 -49 -619 -236 -989 -583 l-115 -109 0 46 c1 41 -2 48 -27 60 -24
12 -35 11 -73 -2 -57 -19 -204 -121 -353 -245 -103 -86 -257 -211 -287 -233
-24 -18 92 195 167 304 43 65 79 122 79 128 0 5 -18 10 -40 10 -37 0 -49 -8
-153 -103 -258 -236 -499 -439 -461 -387 6 8 17 33 24 55 19 61 85 218 142
337 30 63 48 114 44 123 -9 25 -58 10 -152 -46 -157 -94 -289 -149 -360 -149
-22 0 -22 0 7 74 15 40 38 109 50 152 32 118 213 470 268 523 60 56 342 276
503 391 476 341 620 475 715 667 58 116 69 191 32 217 -25 17 -72 19 -132 5z
m28 -91 c-8 -39 -79 -209 -103 -247 -35 -56 -108 -134 -186 -199 -72 -61 -707
-543 -745 -566 -17 -11 73 122 168 244 190 248 472 550 611 655 86 66 219 145
242 145 17 0 19 -5 13 -32z m-1529 -1420 c7 -22 -12 -46 -88 -110 l-48 -40 16
44 c38 108 101 164 120 106z m-33 -335 c-32 -67 -61 -123 -65 -123 -16 0 -51
97 -55 153 l-5 62 88 78 89 79 3 -63 c3 -59 -1 -71 -55 -186z m2317 -164 c48
-28 60 -47 60 -90 0 -68 -107 -165 -227 -204 -65 -21 -97 -14 -112 23 -30 73
39 183 163 261 59 37 70 38 116 10z"/>
</g>
</svg>
