<?xml version="1.0" encoding="UTF-8"?>
<svg version="1.1" xmlns="http://www.w3.org/2000/svg" width="196" height="149" >
<path d="M51.078,2.481c-3.707,2.196-11.861,7.793-7.852,12.756c3.683,4.56,12.118,4.786,17.367,5.094 c10.86,0.637,22.976,0.062,33.364-3.319c5.303-1.726,11.689-5.492,12.618-11.507c1.641-10.626-15.2-3.095-18.896-0.303 c-6.969,5.264-12.015,12.973-16.292,20.451c-8.039,14.053-13.743,29.445-18.885,44.745c-8.541,25.411-15.06,51.498-20.996,77.623 c-0.138,0.608,2.696,0.18,2.855-0.521c5.938-26.137,12.52-52.18,20.995-77.622c5.108-15.333,10.92-30.641,18.885-44.745 c4.317-7.644,9.535-15.489,16.761-20.691c3.555-2.559,11.274-6.098,12.644,0.29c0.622,2.899-1.608,5.773-3.537,7.612 c-5.58,5.322-14.238,5.726-21.457,6.392c-9.391,0.866-21.259,1.946-30.042-2.441c-7.829-3.91-0.054-10.953,4.679-13.756 C54.506,1.818,51.587,2.18,51.078,2.481L51.078,2.481z"/>
<path d="M57.189,11.471c-0.542-0.108,0.73-2.022,1.408-1.966c0.679,0.056,1.436,0.046,2.098-0.122 c2.531-0.642,4.342-2.18,6.198-3.957c1.212-1.161-1.31-1.824-2.167-1.063c-11.014,9.776-19.406,23.594-22.78,37.881 c-1.756,7.437-2.232,15.069,2.83,21.218c4.503,5.468,11.715,8.456,18.233,10.678c20.355,6.936,43.061,7.663,64.354,8.063 c11.94,0.224,23.909,0.086,35.836-0.501c9.002-0.444,18.655-0.854,27.303-3.678c1.532-0.5,6.271-2.314,4.598-4.789 c-1.974-2.921-7.685-3.302-10.763-3.772c-19.104-2.923-39.355-0.76-58.439,1.174c-21.134,2.142-42.045,5.533-62.611,10.861 c-12.006,3.11-24.048,6.085-36.04,9.253c-0.828,0.219-12.5,2.545-11.513,4.647c0.589,1.256,3.453,0.407,2.897-0.777 c0.371,0.791-1.107,1.101,0.233,0.625c0.556-0.197,1.124-0.365,1.687-0.538c1.68-0.515,3.378-0.97,5.073-1.431 c5.732-1.558,11.496-3.004,17.251-4.471c12.614-3.215,25.175-6.789,37.924-9.436c23.694-4.919,48.061-7.625,72.226-8.687 c9.795-0.431,19.677-0.526,29.418,0.732c1.229,0.159,13.155,2.042,8.653,4.208c-7.975,3.838-19.039,3.517-27.633,3.987 c-12.621,0.691-25.314,0.729-37.949,0.455c-15.138-0.328-30.34-1.32-45.261-3.989c-11-1.968-24.279-4.913-32.324-13.32 c-9.008-9.415-2.443-25.954,2.537-35.745c3.968-7.802,9.585-15.509,16.171-21.355c-0.722-0.354-1.444-0.708-2.167-1.063 c-2.273,2.177-3.879,2.499-6.667,2.802c-0.847,0.092-1.464,0.542-2.035,1.135c-1.254,1.301-1.874,4.562,0.405,5.018 C57.586,13.831,59.117,11.857,57.189,11.471L57.189,11.471z"/>
<path d="M48.747,18.737c-1.454,6.842,6.033,4.228,9.282,2.604c3.814-1.905,7.408-4.367,10.738-7.014 c1.966-1.564,5.028-3.845,5.354-6.543c0.068-0.568-0.853-0.472-1.196-0.414c-8.395,1.43-13.536,15.254-16.3,21.575 c-5.893,13.471-9.644,27.821-13.188,42.051c-2.9,11.647-5.453,23.572-10.545,34.508c-2.417,5.188-5.766,9.476-9.636,13.64 c-2.514,2.705-5.155,5.293-7.94,7.717c-2.186,1.903-5.663,5.135-8.774,5.039c-3.618-0.112-3.852-5.179-3.332-7.633 c0.874-4.132,3.22-8.038,5.346-11.624c10.976-18.509,27.399-32.447,41.208-48.666c6.539-7.679,12.518-16.216,19.746-23.27 c0.724-0.706-2.1-0.431-2.652,0.108c-5.921,5.778-10.889,12.707-16.185,19.043c-6.846,8.191-13.861,16.155-21.515,23.601 c-7.5,7.294-14.125,15.642-20.027,24.262c-3.83,5.593-9.517,13.233-9.11,20.396c0.348,6.145,6.783,5.487,10.736,3.7 c3.914-1.77,7.226-4.978,10.315-7.88c4.307-4.046,8.678-8.456,11.771-13.532c5.953-9.771,8.762-21.054,11.529-32.045 c3.591-14.265,7.061-28.519,12.127-42.353c2.909-7.941,6.333-16.09,11.477-22.875c1.115-1.47,2.379-2.869,3.861-3.976 c0.564-0.422,1.472-0.652,0.606-0.505c-0.398-0.138-0.797-0.276-1.196-0.414c-0.465,3.856-6.174,7.054-9.051,9.023 c-2.086,1.428-12.102,8.207-10.575,1.023C51.8,17.439,48.92,17.922,48.747,18.737L48.747,18.737z"/>
<path d="M63.499,32.662c0.533-0.444,1.052-0.905,1.563-1.375c0.727-0.668,1.578-1.395,2.054-2.276 c0.259-0.48-1.036-0.33-1.167-0.307c-0.516,0.09-1.416,0.289-1.694,0.806c-0.415,0.768-1.191,1.389-1.821,1.974 c-0.509,0.471-1.03,0.931-1.563,1.375c-0.527,0.44,0.461,0.521,0.692,0.503C62.234,33.312,62.974,33.101,63.499,32.662 L63.499,32.662z"/>
<path d="M66.758,23.778c-3.144,9.872,15.668,1.503,19.145,0.973c-0.389-0.034-0.778-0.068-1.167-0.102 c0.026,0.046-5.387,6.105-5.727,6.629c-0.319,0.492,2.276-0.117,2.526-0.258c1.765-0.999,3.586-1.952,5.247-3.119 c0.105-0.074,0.23-0.257,0.063-0.349c-0.014-0.008-0.028-0.015-0.042-0.023c-0.678-0.373-2.134,0.169-2.674,0.614 c-1.007,0.828-1.569,1.967-2.121,3.135c0.951-0.178,1.901-0.357,2.852-0.535c1.051-3.259,3.828-4.229,6.757-5.478 c0.592-0.252,5.623-2.124,4.952-3.527c-0.313-0.654-2.589,0.194-2.875,0.656c-0.506,0.821-2.032,4.117-1.286,4.952 c0.245,0.273,1.211-0.001,1.477-0.08c3.445-1.016,7.949-5.589,8.499-9.143c0.06-0.383-2.613,0.121-2.875,0.656 c-1.569,3.208-5.668,13.047,1.299,12.26c6.715-0.758,12.179-6.317,15.803-11.545c0.18-0.26-2.372-0.065-2.852,0.535 c-1.205,1.506-9.659,11.905-4.984,11.992c2.981,0.056,14.141-6.053,11.677-9.691c-0.432-0.638-2.319,0.176-2.754,0.521 c-2.466,1.952-3.752,11.884,1.205,11.382c6.084-0.616,11.434-6.501,13.208-11.99c0.172-0.533-2.539-0.056-2.852,0.535 c-2.882,5.44-5.48,10.946-7.746,16.668c-1.404,3.547-2.94,7.034-4.832,10.35c-0.96,1.683-7.91,9.249-6.485,3.588 c0.478-1.899,2.799-3.601,4.15-4.87c2.488-2.337,5.155-4.488,7.796-6.646c3.323-2.715,8.081-5.467,10.468-9.125 c-0.951,0.178-1.901,0.357-2.852,0.535c-1.065,1.873-2.961,4.626-2.544,6.878c0.277,1.496,4.841-0.322,5.507-0.431 c-0.382-0.074-0.763-0.148-1.145-0.223c-0.325,1.309-1.473,2.419-0.105,3.704c2.502,2.35,6.458,2.433,9.681,2.881 c7.956,1.107,15.869,2.591,23.705,4.349c7.861,1.764,16.251,3.656,23.288,7.729c7.614,4.407,1.34,11.351-3.493,15.365 c-11.435,9.496-26.552,12.591-40.959,13.61c-7.391,0.522-14.804,0.798-22.213,0.615c-5.436-0.134-11.687-0.323-16.627-2.887 c-9.487-4.922,9.219-14.308,12.478-15.786c4.701-2.132,9.707-3.892,14.786-4.858c9.878-1.878,1.707,6.934-1.238,9.167 c-0.57,0.432,2.08,0.138,2.61-0.266c2.54-1.926,5.809-4.644,6.452-7.945c0.575-2.957-4.663-2.307-6.108-2.119 c-7.923,1.027-15.834,4.386-22.876,8.008c-3.614,1.859-14.876,7.934-10.518,13.438c1.771,2.236,5.549,2.863,8.146,3.369 c5.694,1.109,11.66,1.085,17.433,1.051c21.98-0.129,47.951-2.003,64.446-18.577c3.701-3.718,6.471-8.755,1.544-12.416 c-5.908-4.39-14.456-6.076-21.443-7.797c-7.731-1.904-15.581-3.357-23.444-4.595c-2.981-0.469-5.998-0.775-8.953-1.387 c-3.854-0.797-4.507-2.092-3.739-5.19c0.117-0.471-0.938-0.257-1.145-0.223c-2.071,0.338-3.793,1.141-2.715-1.848 c0.52-1.44,1.286-2.825,2.042-4.154c0.187-0.328-2.433-0.106-2.852,0.535c-1.298,1.989-3.69,3.522-5.496,5.006 c-3.206,2.635-6.453,5.217-9.612,7.909c-2.35,2.001-4.747,4.068-6.631,6.53c-0.822,1.074-1.433,4.154,0.485,4.503 c6.304,1.148,11.346-8.227,13.386-12.515c3.549-7.46,6.336-15.14,10.219-22.469c-0.951,0.178-1.901,0.357-2.852,0.535 c-1.317,4.073-4.071,7.351-7.652,9.67c-4.208,2.727-3.093-8.442-1.298-9.863c-0.918,0.173-1.836,0.347-2.754,0.521 c1.147,1.693-1.945,4.177-2.995,5.098c-1.526,1.339-5.625,4.28-3.931,0.212c1.347-3.233,3.808-6.205,5.982-8.923 c-0.951,0.178-1.901,0.357-2.852,0.535c-1.17,1.689-10.374,13.413-13.586,9.067c-2.028-2.745,0.952-8.326,2.188-10.852 c-0.958,0.219-1.917,0.437-2.875,0.656c-0.392,2.533-2.81,4.654-4.555,6.314c-2.283,2.173,0.258,0.572,0.654-0.847 c0.235-0.842,0.499-1.758,0.961-2.508c-0.958,0.219-1.917,0.437-2.875,0.656c0.692,1.447-7.428,3.145-8.921,4.563 c-1.253,1.191-2.206,2.539-2.742,4.202c-0.166,0.516,2.556,0.09,2.852-0.535c0.484-1.026,0.979-2.124,1.879-2.865 c-0.891,0.205-1.782,0.409-2.674,0.614c-0.733-0.403-3.961,2.073-4.732,2.51c0.842-0.086,1.684-0.172,2.526-0.258 c1.64-2.527,3.997-4.299,5.816-6.634c0.008-0.04,0.016-0.081,0.023-0.121c-0.022-0.039-0.044-0.078-0.066-0.116 c-0.185-0.325-0.896-0.144-1.167-0.102c-2.638,0.402-5.26,1.479-7.822,2.2c-3.241,0.912-11.048,3.6-9.033-2.727 C69.765,22.756,66.981,23.078,66.758,23.778L66.758,23.778z"/>
<path d="M140.694,44.238c-21.604-1.466-42.974-4.254-64.673-4.543c-18.274-0.243-36.696-0.647-54.923,0.906 c-3.979,0.339-10.573,0.29-13.651,3.374c-4.248,4.256,9.665,6.091,10.951,6.242c18.528,2.166,37.917,0.323,56.556,0.177 c15.017-0.118,30.034-0.182,45.05-0.362c5.431-0.065,10.875-0.081,16.296-0.44c3.944-0.261,7.856-0.955,11.686-1.912 c2.403-0.601,4.927-1.701,7.439-1.647c1.354,0.029,2.98-2.003,1.02-2.045c-2.505-0.054-4.838,0.643-7.232,1.311 c-5.456,1.521-10.996,2.263-16.654,2.453c-7.254,0.243-14.52,0.261-21.777,0.327c-19.316,0.175-38.635,0.198-57.951,0.5 c-10.279,0.161-20.543,0.592-30.812-0.164c-2.672-0.197-10.897-0.14-12.162-3.206c-0.527-1.279,6.028-2.006,6.64-2.09 c18.331-2.5,37.371-1.634,55.821-1.413c22.606,0.271,44.851,3.049,67.357,4.577C141.045,46.376,142.658,44.371,140.694,44.238 L140.694,44.238z"/>
</svg>